<?xml version="1.0" encoding="utf-8"?>
<!-- Generator: Adobe Illustrator 23.1.0, SVG Export Plug-In . SVG Version: 6.00 Build 0)  -->
<svg version="1.1" id="Capa_1" xmlns="http://www.w3.org/2000/svg" xmlns:xlink="http://www.w3.org/1999/xlink" x="0px" y="0px"
	 viewBox="0 0 491.5 491.5" style="enable-background:new 0 0 491.5 491.5;" xml:space="preserve">
<style type="text/css">
	.st0{fill:#235379;}
	.st1{fill:#FCB040;}
</style>
<g id="Business_1_Bold_28_">
	<path class="st0" d="M0,268.7h73v222.1h345.4V268.7h73.1L245.7,0.7L0,268.7z M387.8,238.1v222.1H103.6V238.1h-34L245.7,46
		l176.1,192h-34V238.1z"/>
</g>
<g id="Certificate">
	<path class="st1" d="M323.6,238H165.8c-9.3,0-16.9,7.6-16.9,16.9v109.4c0,9.3,7.6,16.9,16.9,16.9H220c1.7,0,3-1.3,3-3s-1.3-3-3-3
		h-54.3c-6,0-10.9-4.9-10.9-10.9V254.9c0-6,4.9-10.9,10.9-10.9h157.9c6,0,10.9,4.9,10.9,10.9v109.4c0,6-4.9,10.9-10.9,10.9
		c-1.7,0-3,1.3-3,3s1.3,3,3,3c9.3,0,16.9-7.6,16.9-16.9V254.9C340.5,245.6,333,238,323.6,238z"/>
	<path class="st1" d="M214.7,321.8h-35.9c-1.7,0-3,1.3-3,3s1.3,3,3,3h35.9c1.7,0,3-1.3,3-3C217.7,323.2,216.4,321.8,214.7,321.8z"/>
	<path class="st1" d="M214.7,341.5h-35.9c-1.7,0-3,1.3-3,3s1.3,3,3,3h35.9c1.7,0,3-1.3,3-3C217.7,342.8,216.4,341.5,214.7,341.5z"/>
	<path class="st1" d="M303.8,351.4c-0.1-0.2-0.2-0.3-0.3-0.5c6.2-6.9,10-16,10-26c0-21.5-17.4-38.9-38.9-38.9s-38.9,17.4-38.9,38.9
		c0,9.9,3.7,18.9,9.8,25.8c-0.1,0.1-0.2,0.2-0.2,0.4l-12.6,43.2c-0.3,1.1,0,2.4,0.9,3.1c0.9,0.8,2.2,0.9,3.2,0.4l13.2-6.3l8.3,12.1
		c0.6,0.8,1.5,1.3,2.5,1.3c0.2,0,0.3,0,0.5,0c1.2-0.2,2.1-1,2.4-2.2l10.4-38.9c0.2,0,0.3,0,0.4,0s0.1,0,0.2,0l10.4,38.9
		c0.3,1.1,1.2,2,2.4,2.2c0.2,0,0.3,0,0.5,0c1,0,1.9-0.5,2.5-1.3l8.3-12l13.2,6.2c1.1,0.5,2.3,0.3,3.2-0.4c0.9-0.8,1.3-2,0.9-3.1
		L303.8,351.4z M274.6,291.9c18.2,0,33,14.8,33,33s-14.8,33-33,33s-33-14.8-33-33C241.7,306.7,256.5,291.9,274.6,291.9z
		 M259.7,394.8l-6.1-8.8c-0.8-1.2-2.4-1.6-3.8-1l-9.5,4.5l10-34.3c5.1,4,11.1,6.8,17.8,8L259.7,394.8z M299.2,385.1
		c-1.3-0.6-2.9-0.2-3.7,1l-6.1,8.8l-8.5-31.6c6.7-1.1,12.8-3.8,17.8-7.8l10,34.2L299.2,385.1z"/>
	<path class="st1" d="M217.7,270.9c0-3.3-2.7-6-6-6h-30c-3.3,0-6,2.7-6,6v30c0,3.3,2.7,6,6,6h30c3.3,0,6-2.7,6-6V270.9z
		 M211.7,300.9h-30v-30h30V300.9z"/>
	<path class="st1" d="M274.6,342.8c9.9,0,18-8,18-18c0-9.9-8-18-18-18c-9.9,0-18,8-18,18C256.7,334.8,264.7,342.8,274.6,342.8z
		 M274.6,312.9c6.6,0,12,5.4,12,12s-5.4,12-12,12s-12-5.4-12-12C262.7,318.2,268,312.9,274.6,312.9z"/>
</g>
</svg>
