<svg xmlns="http://www.w3.org/2000/svg" viewBox="0 0 800 800" width="96" height="96">
  
  <path class="handle" d="M200,175v-100c0-27.6,22.4-50,50-50h300c27.6,0,50,22.4,50,50v100"></path>
  <rect class="body" x="25" y="175" width="750" height="600" rx="48"></rect>
  <path class="body" d="M775,175H25v150c0,55.2,44.8,100,100,100h550c55.2,0,100-44.8,100-100v-150Z"></path>
  <path class="clasp" d="M400,525h0c-27.6,0-50-22.4-50-50v-100c0-27.6,22.4-50,50-50h0c27.6,0,50,22.4,50,50v100c0,27.6-22.4,50-50,50Z"></path>
  <line class="slot" x1="450" y1="425" x2="350" y2="425"></line>
</svg>