<?xml version="1.0" encoding="UTF-8"?>
<svg id="Stock_cut" xmlns="http://www.w3.org/2000/svg" version="1.1" viewBox="0 0 800 800">
  <!-- Generator: Adobe Illustrator 29.0.0, SVG Export Plug-In . SVG Version: 2.1.0 Build 186)  -->
  <defs>
    <style>
      .st0 {
        fill: none;
        stroke: #003060;
        stroke-linejoin: round;
        stroke-width: 50px;
      }
    </style>
  </defs>
  <rect class="st0" x="25" y="175" width="750" height="600"/>
  <path class="st0" d="M775,175H25v150c0,55.2,44.8,100,100,100h550c55.2,0,100-44.8,100-100v-150Z"/>
  <path class="st0" d="M200,175v-100c0-27.6,22.4-50,50-50h300c27.6,0,50,22.4,50,50v100"/>
  <path class="st0" d="M400,525h0c-27.6,0-50-22.4-50-50v-100c0-27.6,22.4-50,50-50h0c27.6,0,50,22.4,50,50v100c0,27.6-22.4,50-50,50Z"/>
  <line class="st0" x1="450" y1="425" x2="350" y2="425"/>
</svg>