<?xml version="1.0" encoding="utf-8"?>
<!-- Generator: Adobe Illustrator 23.1.0, SVG Export Plug-In . SVG Version: 6.00 Build 0)  -->
<svg version="1.1" id="Layer_1" xmlns="http://www.w3.org/2000/svg" xmlns:xlink="http://www.w3.org/1999/xlink" x="0px" y="0px"
	 viewBox="0 0 512 512" style="enable-background:new 0 0 512 512;" xml:space="preserve">
<style type="text/css">
	.st0{fill:#FFB71B;}
	.st1{fill:#235379;}
</style>
<g id="Business_1_Bold_28_">
	<path class="st0" d="M49.7,149.7H81v95.1h147.9v-95.1h31.3L154.9,35L49.7,149.7z M215.7,136.6v95.1H94.1v-95.1H79.5l75.4-82.2
		l75.4,82.2H215.7z"/>
</g>
<g>
	<path class="st1" d="M486.8,418.5L334.2,265.9c-4.1-4.1-10.7-4.1-14.7,0L300,285.3L263.7,249c21.8-25.2,35-58.1,35-94.1
		c0-79.4-64.4-143.8-143.8-143.8S11,75.5,11,154.9s64.4,143.8,143.8,143.8c36,0,68.9-13.2,94.1-35l36.3,36.3l-19.4,19.4
		c-5.9,6.6-2,12.8,0,14.7l152.6,152.6c27.3,25.2,57.1,11.2,68.3,0C511.7,462,499.4,431.1,486.8,418.5L486.8,418.5z M154.9,277.9
		c-67.9,0-123-55.1-123-123s55.1-123,123-123s123,55.1,123,123S222.8,277.9,154.9,277.9z M472.1,472.1c-10.7,10.7-28.1,10.7-38.8,0
		L288,326.8l38.8-38.8l145.3,145.2C487.5,450,477.4,466.7,472.1,472.1L472.1,472.1z"/>
</g>
</svg>
