<svg xmlns="http://www.w3.org/2000/svg" viewBox="0 0 312 116" width="312" height="116">
  <svg x="6" y="15" width="86" height="86" viewBox="0 0 96 96">
    <rect x="57" y="15" width="6" height="13" rx="1" fill="#16233F"></rect>
    <path d="M48 13 L67.4 31 L28.6 31 Z" fill="#16233F"></path>
    <path d="M24.3 35 L71.7 35 L90 52 L6 52 Z" fill="#16233F"></path>
    <rect x="6" y="57" width="84" height="9" rx="4.5" fill="#E8792B"></rect>
  </svg>
  <path d="M128.60 57.80L128.60 57.80Q124.64 57.80 121.80 56.42Q118.96 55.04 117.12 52.78Q115.28 50.52 114.40 47.88Q113.52 45.24 113.52 42.76L113.52 42.76L113.52 41.88Q113.52 39.12 114.42 36.46Q115.32 33.80 117.18 31.64Q119.04 29.48 121.84 28.20Q124.64 26.92 128.40 26.92L128.40 26.92Q132.40 26.92 135.50 28.42Q138.60 29.92 140.48 32.62Q142.36 35.32 142.68 38.88L142.68 38.88L135.24 38.88Q134.96 37.36 134.04 36.24Q133.12 35.12 131.68 34.50Q130.24 33.88 128.40 33.88L128.40 33.88Q126.68 33.88 125.30 34.48Q123.92 35.08 122.98 36.18Q122.04 37.28 121.54 38.84Q121.04 40.40 121.04 42.36L121.04 42.36Q121.04 44.32 121.54 45.88Q122.04 47.44 123.02 48.56Q124 49.68 125.40 50.26Q126.80 50.84 128.60 50.84L128.60 50.84Q131.40 50.84 133.34 49.48Q135.28 48.12 135.68 45.84L135.68 45.84L143.12 45.84Q142.76 49.12 140.92 51.84Q139.08 54.56 135.96 56.18Q132.84 57.80 128.60 57.80Z M152.34 57L144.90 57L154.26 27.80L166.18 27.80L175.86 57L168.18 57L166.06 50.24L154.42 50.24L152.34 57ZM156.26 44.16L164.14 44.16L160.90 33.80L159.42 33.80L156.26 44.16Z M190.04 57.80L190.04 57.80Q185.96 57.80 183.18 56.52Q180.40 55.24 178.98 53.02Q177.56 50.80 177.56 47.92L177.56 47.92L184.76 47.92Q184.76 48.96 185.34 49.82Q185.92 50.68 187.08 51.16Q188.24 51.64 190.04 51.64L190.04 51.64Q191.60 51.64 192.70 51.24Q193.80 50.84 194.38 50.12Q194.96 49.40 194.96 48.40L194.96 48.40Q194.96 47.12 193.88 46.42Q192.80 45.72 190.24 45.52L190.24 45.52L188.36 45.36Q183.84 44.96 181.16 42.52Q178.48 40.08 178.48 36.04L178.48 36.04Q178.48 33.16 179.82 31.12Q181.16 29.08 183.60 28Q186.04 26.92 189.36 26.92L189.36 26.92Q192.96 26.92 195.46 28.12Q197.96 29.32 199.28 31.50Q200.60 33.68 200.60 36.56L200.60 36.56L193.40 36.56Q193.40 35.60 192.92 34.80Q192.44 34 191.54 33.54Q190.64 33.08 189.36 33.08L189.36 33.08Q188.16 33.08 187.34 33.46Q186.52 33.84 186.10 34.52Q185.68 35.20 185.68 36.04L185.68 36.04Q185.68 37.16 186.44 37.96Q187.20 38.76 189.08 38.92L189.08 38.92L190.96 39.08Q194.24 39.36 196.76 40.50Q199.28 41.64 200.72 43.60Q202.16 45.56 202.16 48.40L202.16 48.40Q202.16 51.24 200.70 53.36Q199.24 55.48 196.54 56.64Q193.84 57.80 190.04 57.80Z M219.78 57L212.34 57L212.34 34.28L204.34 34.28L204.34 27.80L227.78 27.80L227.78 34.28L219.78 34.28L219.78 57Z M246.36 57.80L246.36 57.80Q242.36 57.80 239.40 56.42Q236.44 55.04 234.48 52.78Q232.52 50.52 231.56 47.88Q230.60 45.24 230.60 42.76L230.60 42.76L230.60 41.88Q230.60 39.12 231.60 36.46Q232.60 33.80 234.60 31.64Q236.60 29.48 239.54 28.20Q242.48 26.92 246.36 26.92L246.36 26.92Q250.20 26.92 253.14 28.20Q256.08 29.48 258.08 31.64Q260.08 33.80 261.10 36.46Q262.12 39.12 262.12 41.88L262.12 41.88L262.12 42.76Q262.12 45.24 261.14 47.88Q260.16 50.52 258.20 52.78Q256.24 55.04 253.28 56.42Q250.32 57.80 246.36 57.80ZM246.36 50.84L246.36 50.84Q248.28 50.84 249.80 50.20Q251.32 49.56 252.40 48.40Q253.48 47.24 254.04 45.70Q254.60 44.16 254.60 42.36L254.60 42.36Q254.60 40.44 254.02 38.88Q253.44 37.32 252.36 36.20Q251.28 35.08 249.76 34.48Q248.24 33.88 246.36 33.88L246.36 33.88Q244.44 33.88 242.92 34.48Q241.40 35.08 240.32 36.20Q239.24 37.32 238.68 38.88Q238.12 40.44 238.12 42.36L238.12 42.36Q238.12 44.16 238.68 45.70Q239.24 47.24 240.32 48.40Q241.40 49.56 242.92 50.20Q244.44 50.84 246.36 50.84Z M274.54 57L267.10 57L267.10 27.56L279.22 27.56Q283.02 27.56 285.78 28.70Q288.54 29.84 290.02 32.06Q291.50 34.28 291.50 37.56L291.50 37.56L291.50 38.20Q291.50 41.48 290.02 43.64L290.02 43.64Q288.58 45.68 286.10 46.80L286.10 46.80L293.26 57L284.70 57L278.78 48.04L274.54 48.04L274.54 57ZM279.66 33.80L274.54 33.80L274.54 42.32L279.66 42.32Q280.98 42.32 281.94 41.80Q282.90 41.28 283.44 40.32Q283.98 39.36 283.98 38.08L283.98 38.08Q283.98 36.76 283.44 35.80Q282.90 34.84 281.94 34.32Q280.98 33.80 279.66 33.80L279.66 33.80Z" fill="#16233F"></path>
  <path d="M121.17 86.37L121.17 86.37Q119.24 86.37 117.86 85.69Q116.47 85.01 115.60 83.91Q114.74 82.82 114.33 81.53Q113.92 80.25 113.92 79.06L113.92 79.06L113.92 78.63Q113.92 77.30 114.34 76.02Q114.75 74.73 115.63 73.68Q116.51 72.62 117.87 71.99Q119.22 71.36 121.07 71.36L121.07 71.36Q123.00 71.36 124.44 72.05Q125.87 72.74 126.73 74.00Q127.59 75.26 127.76 76.93L127.76 76.93L124.97 76.93Q124.82 75.96 124.28 75.28Q123.74 74.61 122.93 74.27Q122.11 73.93 121.07 73.93L121.07 73.93Q120.02 73.93 119.20 74.29Q118.38 74.65 117.84 75.31Q117.29 75.98 117.01 76.87Q116.72 77.77 116.72 78.86L116.72 78.86Q116.72 79.92 117.01 80.81Q117.29 81.71 117.86 82.38Q118.42 83.06 119.25 83.43Q120.08 83.80 121.17 83.80L121.17 83.80Q122.77 83.80 123.87 83.01Q124.97 82.22 125.21 80.79L125.21 80.79L128.00 80.79Q127.80 82.31 126.96 83.58Q126.12 84.85 124.66 85.61Q123.20 86.37 121.17 86.37Z M142.02 86.37L142.02 86.37Q140.09 86.37 138.68 85.69Q137.27 85.01 136.34 83.90Q135.41 82.80 134.96 81.52Q134.50 80.25 134.50 79.06L134.50 79.06L134.50 78.63Q134.50 77.32 134.97 76.03Q135.43 74.73 136.38 73.68Q137.32 72.62 138.73 71.99Q140.13 71.36 142.02 71.36L142.02 71.36Q143.90 71.36 145.30 71.99Q146.70 72.62 147.65 73.68Q148.60 74.73 149.06 76.03Q149.53 77.32 149.53 78.63L149.53 78.63L149.53 79.06Q149.53 80.25 149.07 81.52Q148.62 82.80 147.69 83.90Q146.76 85.01 145.35 85.69Q143.94 86.37 142.02 86.37ZM142.02 83.80L142.02 83.80Q143.12 83.80 143.98 83.41Q144.85 83.02 145.47 82.32Q146.08 81.63 146.40 80.74Q146.72 79.86 146.72 78.86L146.72 78.86Q146.72 77.79 146.40 76.89Q146.08 76.00 145.47 75.33Q144.85 74.67 143.97 74.30Q143.10 73.93 142.02 73.93L142.02 73.93Q140.93 73.93 140.05 74.30Q139.18 74.67 138.56 75.33Q137.95 76.00 137.63 76.89Q137.31 77.79 137.31 78.86L137.31 78.86Q137.31 79.86 137.63 80.74Q137.95 81.63 138.56 82.32Q139.18 83.02 140.05 83.41Q140.93 83.80 142.02 83.80Z M163.07 86.37L163.07 86.37Q161.08 86.37 159.72 85.61Q158.35 84.85 157.64 83.47Q156.93 82.10 156.93 80.25L156.93 80.25L156.93 71.77L159.70 71.77L159.70 80.40Q159.70 81.42 160.09 82.19Q160.48 82.96 161.23 83.38Q161.98 83.80 163.07 83.80L163.07 83.80Q164.15 83.80 164.90 83.38Q165.65 82.96 166.03 82.20Q166.41 81.44 166.41 80.40L166.41 80.40L166.41 71.77L169.18 71.77L169.18 80.25Q169.18 82.10 168.48 83.47Q167.79 84.85 166.43 85.61Q165.06 86.37 163.07 86.37Z M185.17 86L180.61 86L176.07 71.77L178.93 71.77L182.56 83.70L183.24 83.70L186.62 71.77L189.39 71.77L185.17 86Z M205.40 86L196.63 86L196.63 71.77L205.25 71.77L205.25 74.11L199.34 74.11L199.34 77.60L204.90 77.60L204.90 79.94L199.34 79.94L199.34 83.66L205.40 83.66L205.40 86Z M216.02 86L213.25 86L213.25 71.67L218.53 71.67Q220.25 71.67 221.51 72.17Q222.77 72.68 223.45 73.72Q224.13 74.75 224.13 76.31L224.13 76.31L224.13 76.62Q224.13 78.20 223.44 79.21Q222.75 80.23 221.50 80.73L221.50 80.73Q221.44 80.75 221.38 80.77L221.38 80.77L225.18 86L221.95 86L218.59 81.24Q218.55 81.24 218.53 81.24L218.53 81.24L216.02 81.24L216.02 86ZM218.83 74.03L216.02 74.03L216.02 79.00L218.83 79.00Q219.59 79.00 220.14 78.69Q220.70 78.38 221.01 77.81Q221.32 77.24 221.32 76.52L221.32 76.52Q221.32 75.78 221.01 75.22Q220.70 74.65 220.14 74.34Q219.59 74.03 218.83 74.03L218.83 74.03Z M237.87 86L235.10 86L235.10 74.20L230.98 74.20L230.98 71.77L241.98 71.77L241.98 74.20L237.87 74.20L237.87 86Z M255.06 86.37L255.06 86.37Q253.07 86.37 251.70 85.61Q250.34 84.85 249.62 83.47Q248.91 82.10 248.91 80.25L248.91 80.25L248.91 71.77L251.68 71.77L251.68 80.40Q251.68 81.42 252.07 82.19Q252.46 82.96 253.21 83.38Q253.96 83.80 255.06 83.80L255.06 83.80Q256.13 83.80 256.88 83.38Q257.63 82.96 258.01 82.20Q258.39 81.44 258.39 80.40L258.39 80.40L258.39 71.77L261.16 71.77L261.16 80.25Q261.16 82.10 260.47 83.47Q259.77 84.85 258.41 85.61Q257.04 86.37 255.06 86.37Z M272.16 86L269.40 86L269.40 71.67L274.68 71.67Q276.40 71.67 277.65 72.17Q278.91 72.68 279.59 73.72Q280.28 74.75 280.28 76.31L280.28 76.31L280.28 76.62Q280.28 78.20 279.58 79.21Q278.89 80.23 277.64 80.73L277.64 80.73Q277.59 80.75 277.53 80.77L277.53 80.77L281.33 86L278.09 86L274.74 81.24Q274.70 81.24 274.68 81.24L274.68 81.24L272.16 81.24L272.16 86ZM274.97 74.03L272.16 74.03L272.16 79.00L274.97 79.00Q275.73 79.00 276.29 78.69Q276.84 78.38 277.16 77.81Q277.47 77.24 277.47 76.52L277.47 76.52Q277.47 75.78 277.16 75.22Q276.84 74.65 276.29 74.34Q275.73 74.03 274.97 74.03L274.97 74.03Z M297.21 86L288.44 86L288.44 71.77L297.05 71.77L297.05 74.11L291.15 74.11L291.15 77.60L296.70 77.60L296.70 79.94L291.15 79.94L291.15 83.66L297.21 83.66L297.21 86Z" fill="#E8792B"></path>
</svg>