<svg viewBox="0 0 500 500" xmlns="http://www.w3.org/2000/svg"><path d="m0 99.28h500v285.71h-500z" fill="#feffff"/><path d="m263.02 239.17c1.82 2.2-1.83 8.51 2.05 9.67 4.34 1.3 7.22-3.48 7.81-7.07-.04 5.19 8.32 5.98 11.9 8.93.73-.23.8-9.31.56-9.86-.52-1.18-3.2.07-3.72-1.12-.2-.44-.18-4.7.56-5.02 3.25-1.44 21.93 1.09 26.79 0 .1 3.37 1.53 5.53-2.42 6.14l.56 22.51 80.92 44.08-112.91.56v-5.21l48.92-.37 2.6-.37 5.02.74-.37-1.12-81.47-43.9-82.22 45.01c1.81.32 3.68-.27 5.39-.37.93-.05 2.52 1.01 3.72 0l3.91.37 68.82-37.95 2.6.74c19.81 12.19 41.95 21.85 61.76 33.85 1.12.68 2.68 1.37 3.35 2.6l-67.34-36.46-67.15 37.02 42.22.19v5.21h-71.43l-.37-.74 97.1-52.46 88.17 47.99 6.51.19-95.05-51.9-104.17 56.92h-33.11c-.12-.82 1.97-1.84 2.6-2.23 27.19-16.73 57.2-30.31 84.64-47.25 4.36-2.69 8.77-5.32 13.02-8.18l.93 1.49 35.53-20.09c2.16 2.27 12.37 5.76 13.76 7.44z" fill="#1b57a3"/><path d="m326.64 302.04-2.6.37c-24.94-13.22-49.24-27.78-74.59-40.18l-72.73 40.18c-1.2 1.01-2.79-.05-3.72 0l76.45-42.04c26.14 12.95 51.54 27.68 77.19 41.67z" fill="#82a4d6"/><path d="m251.67 284.18 10.61.56-.56 13.95-10.6-.56z" fill="#1b57a3"/><path d="m238.65 284.18 10.61.56-.19 13.58-10.97-.19z" fill="#1b57a3"/><path d="m251.3 300.92 10.6.19-.18 12.09-10.6-.19z" fill="#1b57a3"/><path d="m238.28 300.92 10.6.19-.18 12.09-10.6-.19z" fill="#1b57a3"/><path d="m238.28 315.43c1.45.28 9.9-.37 10.42 0 .28.2.22 3.84.56 4.65-4.76.43-13.55 3.22-10.97-4.65z" fill="#1b57a3"/><path d="m251.67 315.43c1.36-.6 8.05.45 10.04 0l.19 5.02c-.3.42-9.76.39-10.23.19-.86-.38-.86-4.83 0-5.21z" fill="#1b57a3"/><path d="m326.64 302.04c-25.65-13.98-51.06-28.71-77.19-41.67l-76.45 42.04c-1.72.1-3.59.69-5.39.37l82.22-45.01 81.47 43.9.37 1.12-5.02-.74z" fill="#feffff"/><path d="m240.89 174.06c.74 0 2.43-.26 2.79.56.79 4.19-2.6 11.17 4.09 10.42-1.58.66-4.84 2.57-5.58 4.09-.93 1.92-.36 4.14-.74 5.21s-3.74 1.26-3.35 3.35c.43 2.32 4.91.69 5.39.93.42.2 3.26 7.35 4.28 8.37-5.74 3.96-9.49 10.04-13.39 15.63-.32.46.56 1.22.37 1.49-.73 1.06-11.29 11.79-12.09 12.09s-3.79-.27-4.84.74c-1.59 1.55.92 2.99-.37 4.46-2.4-.86-9.24-7.03-11.16-6.7-.81.14-8.74 7.11-9.67 7.07-.69-.03-.21-1.11-.37-1.12-4.95-.33-9.95.16-14.88-.37-1.44-2.81 3.18-22.41 4.84-23.07l34.04-.56c-8.46-1.88-17.91-1.42-25.86-4.28l6.7-1.12-11.16-1.49c6.89-15.02 23.65-28.3 39.43-33.11 2.26-.69 9.53-2.59 11.53-2.6z" fill="#f68a2e"/><path d="m259.49 193.78 40.55 1.86c11.62 11.62 18.35 27.98 18.79 44.46-8.78 1.07-7.36.15-7.63-7.63l-32.74.37.93 9.11c3.77-.15 3.68 1.13 3.72 4.46l-.74.37c-1.6-1.76-5.17-2.21-6.88-3.53-6.08-4.71-.02-9.33.56-15.07.75-7.44-5.14-20.92-12.46-23.62-1.4-.52-4.84-.05-5.39-1.3-.49-4.02-2.33-6.62 1.3-9.49z" fill="#f68a2e"/><path d="m244.61 163.27c42.97-2.47 80.65 29.45 84.26 72.36-.21.29-5.93.33-6.32 0-.49-.41-1.68-10.66-2.23-12.65-19.52-70.26-120.34-70.78-140.62 0-.57 1.99-1.75 11.88-2.23 12.28-.66.56-4.97-.03-6.14.19 2.19-37.82 35.65-70.01 73.29-72.17z" fill="#1b57a3"/><path d="m251.3 173.69c14.55.28 29.04 5.27 40.36 14.32-1.04.45-5.92.22-6.51.56-.39.22-.08 1.27-.19 1.3-7.62 2.34-17.86 1.88-25.86 3.53-1.67-3.49-2.18-5.58-5.58-7.81-.53-.35-2.4-.11-2.79-.93-.26-.55-.15-10.66.56-10.97z" fill="#f89c2d"/><path d="m181.73 247.35 14.14.37c.7.31.83 9.39.56 10.23-.38 1.15-10 6.04-11.72 6.88-1.02-.36-4.66-16.74-2.98-17.49z" fill="#f68a2e"/><path d="m309.34 247.35 9.49.56-3.53 16.93c-1.42-.72-6.1-2.46-6.51-3.91-.3-1.07-.13-13.27.56-13.58z" fill="#f68a2e"/><path d="m171.32 249.21c1.05.18 5.66-.33 6.14.19.61.66 1.68 15.31 3.72 17.49-1 .59-5.26 3.63-5.95 2.98-.94-2.53-5.38-19.61-3.91-20.65z" fill="#1b57a3"/><path d="m322.73 249.58c.27-.15 5.96-.06 6.14.19l-4.65 20.28-5.39-2.79c1.67-2.12 3.11-17.24 3.91-17.67z" fill="#1b57a3"/><path d="m245.72 226.89c.9-.24 2.01 2.22 2.42 2.79.02.55-.56.97-.93 1.3-1.15 1.03-16.64 9.64-18.97 10.79-.69.34-1.13 1.03-1.67.19 3.44-3.78 9.58-5.19 13.58-8.37 1.64-1.31 5.16-6.58 5.58-6.7z" fill="#f68a2e"/><path d="m267.86 239.54c-.32-.68-.3-1.5-.37-2.23-.32-3.23-.88-10.99 3.72-10.97l-4.84.37 3.35-1.49c-6.08 1.17-4.3-3.99-6.14-8-.55 3.49 4.66 16.69 3.16 19.16-.13.21-3.58.79-3.72 2.79-1.4-1.68-11.61-5.17-13.76-7.44.43-5.67-2.84-11.32-3.35-16.93-.23-2.57-.83-5.59 2.23-6.32-.2 1.66 1.98 12.47 2.79 12.83l8-1.67c-1.37-1.74-.67-13.32.37-14.14.5-.4 1.43-.1 2.05-.19-.55 6.93-1.2 15.16 2.6 21.21-1.77-6.63-2.83-13.48-1.67-20.28 1.28-2.01 6.54 3.9 7.44 5.21 2.98 4.36 5.43 11.89 4.84 17.11-.27 2.33-3.07 13.35-6.7 10.97z" fill="#0e1426"/><path d="m235.68 225.03 5.39 5.39c-1.49 3.35-15.73 8.8-16.56 10.23-.61 1.05.34 1.75.19 2.05-1.44 2.81-3.09 3.8-4.65.56-2.76 1.81-.85-2.43.74-3.35l1.67 2.05c-.43-1.73-1.09-2.23-2.6-2.98 6.48-3.08 11.01-8.72 15.81-13.95z" fill="#0e1426"/><path d="m247.95 185.97c5.26-.95 8.85 2.05 9.49 7.25l-17.67 4.65c-.65-.97.43-1.57 1.12-1.86 3.27-1.38 9.63-.97 13.21-2.42l-11.53 1.12c-.73-3.59 1.52-8.04 5.39-8.74z" fill="#0e1426"/><path d="m244.61 211.26c-.48 2.86 3.76 13.5 3.53 15.07 0 .07-.55.75-.74.37l-2.05-4.28c.32 8.83-5.8 2.67-9.49.19l8.74-11.35z" fill="#0e1426"/><path d="m250 207.17c1.1 4.65 6.64 1.01 7.81-1.86.33 4.57-1.17 9.33 0 13.95-.92 0-5.84 1.4-6.14 1.3-1.5-.52-2.57-11.63-3.16-13.58.56-.63 1.23.22 1.49.19z" fill="#0e1426"/><path d="m212.8 250.33c-4.25 2.86-8.66 5.49-13.02 8.18-2.7-3.64 2.42-13.99-3.91-13.02-.37-.19.26-.71.37-.74 1.04-.34 20.91-.34 21.95 0 2.64.86-2.68 1.14-2.79 1.3-.39.55.42 2.42.37 2.6-.13.48-2.39 1.28-2.98 1.67z" fill="#0e1426"/><path d="m207.03 236.56c.63-.02 9.18 6.14 10.23 7.25l-19.53.19c.3-1.25 8.7-7.43 9.3-7.44z" fill="#0e1426"/><path d="m267.49 237.31c.07.73.05 1.55.37 2.23.02.03-.68.27.19.74l3.91-.19c.88 3.51-2.58 9.44-6.51 8-.67-.25 1.28-7.18 0-8.56-.61 1.36.6 8.28-1.67 7.25 1.23-3.33-1.86-10.45 3.72-9.49z" fill="#1b57a3"/><path d="m257.81 205.31c-1.17 2.87-6.71 6.51-7.81 1.86.75-.11.89-.3 1.12-.37 3.88-1.17 4.27-2.5 5.21-6.32.26 1.34 1.32 2.56 1.49 4.84z" fill="#dd7731"/><path d="m236.79 223.91c.57 1.17 6.47 3.89 6.51 4.28.37 3.62-6.73-2.73-6.51-4.28z" fill="#0e1426"/><path d="m256.32 200.48c-.94 3.82-1.33 5.15-5.21 6.32-3.94-.81-5.32-5.55-6.7-8.74l13.21-3.91c-1.85 1.57-1.18 2.46-1.3 4.65-.05.92-.39-.32 0 1.67z" fill="#100f19"/><path d="m251.3 197.13c7.42-.18 2.05 11.75-3.91 4.65-.74-.89-1.09-2.43-1.86-3.35.09-.28 5.31-1.29 5.77-1.3z" fill="#f68a2e"/><g fill="#0e1426"><path d="m13.82 380.1 16.53-45.5h8.5l16.69 45.5h-9.03l-13.66-40.17h3.45l-13.66 40.17h-8.82zm8.34-9.75 2.18-8h19.24l2.23 8z"/><path d="m77.21 380.88c-2.87 0-5.54-.58-8-1.72-2.46-1.15-4.6-2.78-6.4-4.91s-3.21-4.62-4.22-7.48-1.51-6-1.51-9.42.5-6.57 1.51-9.42c1.01-2.86 2.43-5.35 4.25-7.48 1.82-2.12 3.97-3.76 6.43-4.91s5.13-1.72 8-1.72c3.22 0 6.15.68 8.77 2.05s4.82 3.37 6.59 6.01l-5.58 6.24c-1.24-1.78-2.65-3.12-4.22-4.03-1.58-.91-3.29-1.37-5.13-1.37-1.74 0-3.33.36-4.78 1.07s-2.71 1.72-3.77 3.02-1.89 2.84-2.47 4.62-.88 3.75-.88 5.92.29 4.14.88 5.92c.58 1.78 1.41 3.32 2.47 4.62s2.32 2.31 3.77 3.02 3.05 1.07 4.78 1.07c1.84 0 3.55-.46 5.13-1.4 1.58-.93 2.98-2.29 4.22-4.06l5.58 6.24c-1.77 2.64-3.97 4.66-6.59 6.04-2.62 1.39-5.56 2.08-8.82 2.08z"/><path d="m113.39 380.1v-45.5h16.1c3.33 0 6.2.66 8.61 1.98s4.27 3.22 5.58 5.69 1.96 5.4 1.96 8.78-.65 6.36-1.96 8.81-3.17 4.31-5.58 5.59-5.28 1.92-8.61 1.92h-11.37l3.93-4.55v17.29h-8.66zm8.66-16.12-3.93-5h10.89c2.62 0 4.61-.69 5.95-2.08 1.35-1.39 2.02-3.34 2.02-5.85s-.67-4.45-2.02-5.82-3.33-2.05-5.95-2.05h-10.89l3.93-5zm15.04 16.12-9.35-16.51h9.25l9.35 16.51z"/><path d="m161 371.65h20.25v8.45h-28.8v-45.5h28.11v8.45h-19.55v28.6zm-.63-18.79h17.91v8.25h-17.91z"/><path d="m188.1 380.1v-45.5h7.12l21.95 32.76h-3.45v-32.76h8.5v45.5h-7.12l-21.95-32.76h3.45v32.76z"/><path d="m249.1 380.88c-2.94 0-5.65-.58-8.13-1.75s-4.64-2.82-6.48-4.94-3.27-4.62-4.28-7.47c-1.01-2.86-1.51-5.98-1.51-9.36s.5-6.55 1.51-9.39 2.43-5.32 4.28-7.44c1.84-2.12 3.99-3.77 6.46-4.94 2.46-1.17 5.16-1.75 8.1-1.75s5.64.58 8.1 1.72c2.46 1.15 4.61 2.79 6.46 4.91 1.84 2.12 3.27 4.62 4.28 7.48s1.51 6 1.51 9.42-.5 6.51-1.51 9.39-2.44 5.38-4.28 7.51c-1.84 2.12-3.99 3.76-6.46 4.91-2.46 1.15-5.15 1.72-8.05 1.72zm-.05-8.91c1.67 0 3.2-.36 4.6-1.07s2.63-1.73 3.69-3.06c1.06-1.32 1.89-2.86 2.47-4.61s.88-3.72.88-5.88-.29-4.13-.88-5.88c-.58-1.75-1.41-3.29-2.47-4.61s-2.29-2.34-3.69-3.06c-1.4-.71-2.93-1.07-4.6-1.07s-3.21.36-4.62 1.07c-1.42.71-2.65 1.73-3.69 3.06-1.04 1.32-1.86 2.86-2.44 4.61s-.88 3.72-.88 5.88.29 4.13.88 5.88c.58 1.75 1.4 3.29 2.44 4.61s2.28 2.34 3.69 3.06c1.42.71 2.96 1.07 4.62 1.07z"/><path d="m287.04 380.1-16.1-45.5h9.35l14.03 40.3h-5.47l14.24-40.3h8.56l-16.1 45.5h-8.5z"/><path d="m310.63 380.1 16.53-45.5h8.5l16.69 45.5h-9.03l-13.66-40.17h3.45l-13.66 40.17zm8.35-9.75 2.18-8h19.24l2.23 8z"/><path d="m363.93 380.1v-36.92h-11.9v-8.58h32.41v8.58h-11.9v36.92z"/><path d="m389.06 380.1v-45.5h8.66v45.5z"/><path d="m424.56 380.88c-2.94 0-5.65-.58-8.13-1.75s-4.64-2.82-6.48-4.94-3.27-4.62-4.28-7.47c-1.01-2.86-1.51-5.98-1.51-9.36s.5-6.55 1.51-9.39 2.43-5.32 4.28-7.44c1.84-2.12 3.99-3.77 6.46-4.94 2.46-1.17 5.16-1.75 8.1-1.75s5.64.58 8.1 1.72c2.46 1.15 4.61 2.79 6.46 4.91 1.84 2.12 3.27 4.62 4.28 7.48s1.51 6 1.51 9.42-.5 6.51-1.51 9.39-2.44 5.38-4.28 7.51c-1.84 2.12-3.99 3.76-6.46 4.91-2.46 1.15-5.15 1.72-8.05 1.72zm-.05-8.91c1.67 0 3.2-.36 4.6-1.07s2.63-1.73 3.69-3.06c1.06-1.32 1.89-2.86 2.47-4.61s.88-3.72.88-5.88-.29-4.13-.88-5.88c-.58-1.75-1.41-3.29-2.47-4.61s-2.29-2.34-3.69-3.06c-1.4-.71-2.93-1.07-4.6-1.07s-3.21.36-4.62 1.07c-1.42.71-2.65 1.73-3.69 3.06-1.04 1.32-1.86 2.86-2.44 4.61s-.88 3.72-.88 5.88.29 4.13.88 5.88c.58 1.75 1.4 3.29 2.44 4.61s2.28 2.34 3.69 3.06c1.42.71 2.96 1.07 4.62 1.07z"/><path d="m451.34 380.1v-45.5h7.12l21.95 32.76h-3.45v-32.76h8.5v45.5h-7.12l-21.95-32.76h3.45v32.76z"/></g></svg>